<mxfile host="app.diagrams.net" modified="2021-03-18T12:41:46.113Z" agent="5.0 (Windows)" etag="TpIXx5A21u5yEoo1XhQj" version="14.4.9" type="github">
  <diagram id="wMmvt0XPjrNcaOcg1m1G" name="Page-1">
    <mxGraphModel dx="417" dy="262" grid="1" gridSize="10" guides="1" tooltips="1" connect="1" arrows="1" fold="1" page="1" pageScale="1" pageWidth="850" pageHeight="1100" math="0" shadow="0">
      <root>
        <mxCell id="0" />
        <mxCell id="1" parent="0" />
        <mxCell id="5d9DUkz12LquNyGooCo3-12" value="&lt;div&gt;&lt;font data-font-src=&quot;https://fonts.googleapis.com/css?family=UnifrakturMaguntia&quot; face=&quot;UnifrakturMaguntia&quot;&gt;&lt;br&gt;&lt;/font&gt;&lt;/div&gt;&lt;div&gt;&lt;font data-font-src=&quot;https://fonts.googleapis.com/css?family=UnifrakturMaguntia&quot; face=&quot;UnifrakturMaguntia&quot;&gt;30.04.1993 Herbertshofen&lt;/font&gt;&lt;/div&gt;&lt;div&gt;&lt;font data-font-src=&quot;https://fonts.googleapis.com/css?family=UnifrakturMaguntia&quot; face=&quot;UnifrakturMaguntia&quot;&gt;Software Ingenieuer Swisslog Aarau&lt;br&gt;&lt;/font&gt;&lt;/div&gt;&lt;div align=&quot;left&quot;&gt;&lt;font data-font-src=&quot;https://fonts.googleapis.com/css?family=UnifrakturMaguntia&quot; face=&quot;UnifrakturMaguntia&quot;&gt;Punkt3&lt;/font&gt;&lt;/div&gt;&lt;div&gt;&lt;font data-font-src=&quot;https://fonts.googleapis.com/css?family=UnifrakturMaguntia&quot; face=&quot;UnifrakturMaguntia&quot;&gt;Punkt4&lt;/font&gt;&lt;/div&gt;&lt;div&gt;&lt;font data-font-src=&quot;https://fonts.googleapis.com/css?family=UnifrakturMaguntia&quot; face=&quot;UnifrakturMaguntia&quot;&gt;Punkt5&lt;/font&gt;&lt;/div&gt;&lt;div&gt;&lt;font data-font-src=&quot;https://fonts.googleapis.com/css?family=UnifrakturMaguntia&quot; face=&quot;UnifrakturMaguntia&quot;&gt;&lt;br&gt;&lt;/font&gt;&lt;/div&gt;" style="text;html=1;strokeColor=none;fillColor=none;align=left;verticalAlign=middle;whiteSpace=wrap;rounded=0;" vertex="1" parent="1">
          <mxGeometry x="322" y="480" width="191.76" height="80" as="geometry" />
        </mxCell>
        <mxCell id="5d9DUkz12LquNyGooCo3-19" value="" style="shape=image;verticalLabelPosition=bottom;labelBackgroundColor=#ffffff;verticalAlign=top;aspect=fixed;imageAspect=0;image=data:image/png,iVBORw0KGgoAAAANSUhEUgAAAD4AAABQCAYAAABBP8ZuAAAABGdBTUEAALGOfPtRkwAAACBjSFJNAACHDwAAjA8AAP1SAACBQAAAfXkAAOmLAAA85QAAGcxzPIV3AAAKL2lDQ1BJQ0MgUHJvZmlsZQAASMedlndUVNcWh8+9d3qhzTDSGXqTLjCA9C4gHQRRGGYGGMoAwwxNbIioQEQREQFFkKCAAaOhSKyIYiEoqGAPSBBQYjCKqKhkRtZKfHl57+Xl98e939pn73P32XuftS4AJE8fLi8FlgIgmSfgB3o401eFR9Cx/QAGeIABpgAwWempvkHuwUAkLzcXerrICfyL3gwBSPy+ZejpT6eD/0/SrFS+AADIX8TmbE46S8T5Ik7KFKSK7TMipsYkihlGiZkvSlDEcmKOW+Sln30W2VHM7GQeW8TinFPZyWwx94h4e4aQI2LER8QFGVxOpohvi1gzSZjMFfFbcWwyh5kOAIoktgs4rHgRm4iYxA8OdBHxcgBwpLgvOOYLFnCyBOJDuaSkZvO5cfECui5Lj25qbc2ge3IykzgCgaE/k5XI5LPpLinJqUxeNgCLZ/4sGXFt6aIiW5paW1oamhmZflGo/7r4NyXu7SK9CvjcM4jW94ftr/xS6gBgzIpqs+sPW8x+ADq2AiB3/w+b5iEAJEV9a7/xxXlo4nmJFwhSbYyNMzMzjbgclpG4oL/rfzr8DX3xPSPxdr+Xh+7KiWUKkwR0cd1YKUkpQj49PZXJ4tAN/zzE/zjwr/NYGsiJ5fA5PFFEqGjKuLw4Ubt5bK6Am8Kjc3n/qYn/MOxPWpxrkSj1nwA1yghI3aAC5Oc+gKIQARJ5UNz13/vmgw8F4psXpjqxOPefBf37rnCJ+JHOjfsc5xIYTGcJ+RmLa+JrCdCAACQBFcgDFaABdIEhMANWwBY4AjewAviBYBAO1gIWiAfJgA8yQS7YDApAEdgF9oJKUAPqQSNoASdABzgNLoDL4Dq4Ce6AB2AEjIPnYAa8AfMQBGEhMkSB5CFVSAsygMwgBmQPuUE+UCAUDkVDcRAPEkK50BaoCCqFKqFaqBH6FjoFXYCuQgPQPWgUmoJ+hd7DCEyCqbAyrA0bwwzYCfaGg+E1cBycBufA+fBOuAKug4/B7fAF+Dp8Bx6Bn8OzCECICA1RQwwRBuKC+CERSCzCRzYghUg5Uoe0IF1IL3ILGUGmkXcoDIqCoqMMUbYoT1QIioVKQ21AFaMqUUdR7age1C3UKGoG9QlNRiuhDdA2aC/0KnQcOhNdgC5HN6Db0JfQd9Dj6DcYDIaG0cFYYTwx4ZgEzDpMMeYAphVzHjOAGcPMYrFYeawB1g7rh2ViBdgC7H7sMew57CB2HPsWR8Sp4sxw7rgIHA+XhyvHNeHO4gZxE7h5vBReC2+D98Oz8dn4Enw9vgt/Az+OnydIE3QIdoRgQgJhM6GC0EK4RHhIeEUkEtWJ1sQAIpe4iVhBPE68QhwlviPJkPRJLqRIkpC0k3SEdJ50j/SKTCZrkx3JEWQBeSe5kXyR/Jj8VoIiYSThJcGW2ChRJdEuMSjxQhIvqSXpJLlWMkeyXPKk5A3JaSm8lLaUixRTaoNUldQpqWGpWWmKtKm0n3SydLF0k/RV6UkZrIy2jJsMWyZf5rDMRZkxCkLRoLhQWJQtlHrKJco4FUPVoXpRE6hF1G+o/dQZWRnZZbKhslmyVbJnZEdoCE2b5kVLopXQTtCGaO+XKC9xWsJZsmNJy5LBJXNyinKOchy5QrlWuTty7+Xp8m7yifK75TvkHymgFPQVAhQyFQ4qXFKYVqQq2iqyFAsVTyjeV4KV9JUCldYpHVbqU5pVVlH2UE5V3q98UXlahabiqJKgUqZyVmVKlaJqr8pVLVM9p/qMLkt3oifRK+g99Bk1JTVPNaFarVq/2ry6jnqIep56q/ojDYIGQyNWo0yjW2NGU1XTVzNXs1nzvhZei6EVr7VPq1drTltHO0x7m3aH9qSOnI6XTo5Os85DXbKug26abp3ubT2MHkMvUe+A3k19WN9CP16/Sv+GAWxgacA1OGAwsBS91Hopb2nd0mFDkqGTYYZhs+GoEc3IxyjPqMPohbGmcYTxbuNe408mFiZJJvUmD0xlTFeY5pl2mf5qpm/GMqsyu21ONnc332jeaf5ymcEyzrKDy+5aUCx8LbZZdFt8tLSy5Fu2WE5ZaVpFW1VbDTOoDH9GMeOKNdra2Xqj9WnrdzaWNgKbEza/2BraJto22U4u11nOWV6/fMxO3Y5pV2s3Yk+3j7Y/ZD/ioObAdKhzeOKo4ch2bHCccNJzSnA65vTC2cSZ79zmPOdi47Le5bwr4urhWuja7ybjFuJW6fbYXd09zr3ZfcbDwmOdx3lPtKe3527PYS9lL5ZXo9fMCqsV61f0eJO8g7wrvZ/46Pvwfbp8Yd8Vvnt8H67UWslb2eEH/Lz89vg98tfxT/P/PgAT4B9QFfA00DQwN7A3iBIUFdQU9CbYObgk+EGIbogwpDtUMjQytDF0Lsw1rDRsZJXxqvWrrocrhHPDOyOwEaERDRGzq91W7109HmkRWRA5tEZnTdaaq2sV1iatPRMlGcWMOhmNjg6Lbor+wPRj1jFnY7xiqmNmWC6sfaznbEd2GXuKY8cp5UzE2sWWxk7G2cXtiZuKd4gvj5/munAruS8TPBNqEuYS/RKPJC4khSW1JuOSo5NP8WR4ibyeFJWUrJSBVIPUgtSRNJu0vWkzfG9+QzqUvia9U0AV/Uz1CXWFW4WjGfYZVRlvM0MzT2ZJZ/Gy+rL1s3dkT+S453y9DrWOta47Vy13c+7oeqf1tRugDTEbujdqbMzfOL7JY9PRzYTNiZt/yDPJK817vSVsS1e+cv6m/LGtHlubCyQK+AXD22y31WxHbedu799hvmP/jk+F7MJrRSZF5UUfilnF174y/ariq4WdsTv7SyxLDu7C7OLtGtrtsPtoqXRpTunYHt897WX0ssKy13uj9l4tX1Zes4+wT7hvpMKnonO/5v5d+z9UxlfeqXKuaq1Wqt5RPXeAfWDwoOPBlhrlmqKa94e4h+7WetS212nXlR/GHM44/LQ+tL73a8bXjQ0KDUUNH4/wjowcDTza02jV2Nik1FTSDDcLm6eORR67+Y3rN50thi21rbTWouPguPD4s2+jvx064X2i+yTjZMt3Wt9Vt1HaCtuh9uz2mY74jpHO8M6BUytOdXfZdrV9b/T9kdNqp6vOyJ4pOUs4m3924VzOudnzqeenL8RdGOuO6n5wcdXF2z0BPf2XvC9duex++WKvU++5K3ZXTl+1uXrqGuNax3XL6+19Fn1tP1j80NZv2d9+w+pG503rm10DywfODjoMXrjleuvyba/b1++svDMwFDJ0dzhyeOQu++7kvaR7L+9n3J9/sOkh+mHhI6lH5Y+VHtf9qPdj64jlyJlR19G+J0FPHoyxxp7/lP7Th/H8p+Sn5ROqE42TZpOnp9ynbj5b/Wz8eerz+emCn6V/rn6h++K7Xxx/6ZtZNTP+kv9y4dfiV/Kvjrxe9rp71n/28ZvkN/NzhW/l3x59x3jX+z7s/cR85gfsh4qPeh+7Pnl/eriQvLDwG/eE8/s3BCkeAAAACXBIWXMAAA7EAAAOxAGVKw4bAAAAD3RFWHRTb3VyY2UATklLT04gRDW17pBeAAAAKnRFWHRTb2Z0d2FyZQBBZG9iZSBQaG90b3Nob3AgQ0MgMjAxOCAoV2luZG93cylldskoAAAAB3RJTUUH4wkCESwk48svTgAAABd0RVh0QXV0aG9yAERFVExFRiBTQ0hST0VERVJxb0b/AAAAMnRFWHRDb3B5cmlnaHQAREVUTEVGIFNDSFJPRURFUiAgRk9UTy1BVEVMSUVSIFNDSFJPRURFUo6xcS0AAAAgdEVYdENyZWF0aW9uVGltZQAyMDE5OjA5OjAyIDE3OjA0OjM2pDCZfQAAACF0RVh0Q3JlYXRpb24gVGltZQAyMDE5OjA5OjAyIDE3OjA0OjM2LL/6uwAAJ7FJREFUeF59fFmQXcd53nf3fe69s2F2rIONAIiFogiKFElRVjmqSixblpQqZXnwUpU8JGVVYlcqSVmveYjtOC+uKFZiyRYtkYpUii3R3HdwgwSCBEEAM8AMgcHMnf3u+51839/nzAz5kD44p7e/u/+9/z73DAIPPvjgVgDAFm+lAK8tXoEA8y3mvPTPB2CzFdWkZGU+bBKVeXPYdrK5mNs8qrPTLejPIoidcTstVvBKbPH7NN6a/J6dhzLB9NhnOVuUa0H1WtkeQDAoSniLUFdmYyBo/cqtzcoOxuDU69d1BXfaddmYoEACCGmOYMjK3kS2RkBraIy3hsEG2cZ+W59ly61vB8at5c/j40KiDNatSaKsX2vbWJvTjTfmqE3QavQ7fKJ9xFRRm+C0qJ87OG+cLoPdya3Xq7NFM3pl12f/XGYFN05F9mp+ViwXMwTEssGonTBufjfWMch6NJu12aXcgNTmZaxL+iZxXQbsL+otprItoj6VOdAtomV3+m0BXj7zbDHeqis3LnuIf/ImQ7lWp9tDp7eFdncLzVYHzXYXHaprl21K/hoOTa2sRv3jZbju9AUCoR2mMHmG4cxhZygCjzz8ebMWG8TcA7OybESTbDsB5oJy9sKKZ2dKKm5J5Tw41f3F/Ul9++xtcWbB8+5LxXHu+AEkohEko0GMj+5BpRvE+1dnsFGq4urMvKazNSMhZzIq2/yaw7ssfSITjAEwaUzPyx2OgUcfeYR0qcFPXkmtFIiqarHFdxHi141Qa3JQavedimpyNJaYa2mlwWwK+XQSRw9OYnJ0EEP9WcTjccIC9WoF4VCQdxjBaAy1RgfFahUXL1/Di29fpt0KL87uTat5jUCtqEWVWN3ymOu4Q/pYF9McPsTvsUce5dMfwaQOm8Njhsoaa53KBc5etXl9grH5BOW3e41qNhCOmcjFkcvEMDLYjz2DeVPxUCSGarlCx7aFRqOJ/MAAVtc3sbq6htGhPFLpDEZG9iCby5HwD/ASiW83mwiROR6qO7K0xbSmQ0JkSbssqc8yh1PgscceE57byet3Ks7cJ04wjiDmNpK3Mpa3J1CH9RmUQ4zleAgYG0hjbnYWJ48fxp6RIZSKZUqVHT3ZcwCLSwVslqtUZ9o86+oTBtlcFs1GnQxLY+/UJAaG9+B7P3sRtVrdvLUQ2VFpW9yIdXjuMEF90hQfNvCFx77g8ObDpORgLNkgI8IqHoxLBuLBuSFexYdgJtWNduuYGMig1WphcHAAa+sblHgOo3uGcePmPK5enyUBIcSjIaTTKSQSaUQiIZTrTSzcWeDyVPsw+1IJZLI5DOcyGD9wCD9+5gKdp5wtCe3JuJRkYkGu22UuIj287J9vaEYlAo8//rgnMD5dYTuJOw7MS37Rm9Am93JbRf3MlIdITC4ZRqu4TKG2TY33jIyisr5sXntts4xMXxYjw4PIZvvQaLXRpApvUQOajRZKvNfX1hEi0e1Oj84vjGEyK8sxg7kUqqEMLn1wzXYZs2db2KEghm+jKrz8XEL06tQWKrW2BLLPbFe3Ovjc3sZ4u21sFwxvARqMZlLdMqkavXUigvrmMlq1Km7O3EKjVEKjuEH0gqiXS5ieGqEN92P21sd44813Ua+UMTU5QelxG+t2cObUKcQSSap0A+1Wk2v0cHfhLtaX73LMPDrFAgJ0gOK04eNdRNbqnjQNL2tX0avrJt7+EF5qYB7iXsgexxAD0n4reDfo02PUxiIz2ifVbt84JZMIobSxieszczhAzz3Wn0aoWUFmq4kE8V28W8DSndvcvoZpu+MorBXxwouvEDOqdiRq3j2TiFHaHcSp+hQ6UokoHd+amUahUMD0WD+49Xtr+xi5ZCXhJV1QkbT4TYINHTp48NsepAfMsoxHNZvMpd1lA1NdswhO8PwndcrQTnP0ZtevXcPa0gKOjA9gil78wNgI7jmwFyd4y1Fhq4N2o4Z1OrTR4SHk+lIYyGdxY3YOK2traFHtc+kE4kGpeYSwdWpCD8P0E51OG8FwDNFAG7WtCHriioeXnzvMvLJX19NdNMVD04e+7RPhAB2ktnADUrukb/1uBsu95IhnbmwF9k+MolraxMLcTfTFwzh/70mcPDxNp9SHA/smsHd8FHu4b3e5QjQcQbm4iWpxHdFYAlWq+6HpaWzRJzSrZeSTcaTjMUZwHSN+iyaQSKc5jipDnIw5fRlsVmkKHvPt4eXCzaHl2gxVuynx6UMk3KurwXIVeW07Lv3zCdSlomD9tl19ESJw/cr7SKCNiZFhfPnB+zCS7yMBUWQp6TCRzlO62VgUnVAUfSRkpD+PkYkp9A8MYWV51bx0t1nH+EAOI/QDnU4LUQYzMTq6pbUN7v8MbZstiwOGBrLYbFDfOUZ47GCyO+3UfRgJVjXvdmVzWNbk2ix3ztDB7ErqcnmAyEXRrZcQph2HKdNH7rsXSRIYpUeOJ+JgRIpEiHDco/dOjeH4fmrA2B6MDw1hKkW/sraIQH0DCcKNk+BEIoFcLEL/kEd/JoVAp4sh7gDy/uuMAzrcIhuM6pJxaoOQoHi3id+Fu+HoGh0cG0LThw/vqPruWxdzc2zMtQ2oTc5P/9Tmw7gy0N+XxvLibdp4hCqYxiPn7kWMEU4sFkY6RomRkFgqiVA0SbvsUAMyyJIbd2/dwP2fuQ/NtQIyGWoHmTNAArNkVj+1I0zmFSs1xMjATCaLHtcLkXmjjOia7TZ6wTjzjqHp42J4WfJw9BOL5sAPT08b4Y6gHUL8sj/InKfK4gM565m0JcsNNoji8gISJPTE9EEcGhtCWM6JdhplLB4JE4bXFneNLcIHiXwmn8f04SOIxRPYv28KwzQLmUaSnrw/m8HE2DC3M9o8pT04wLiejnB5s4hypUJV7yJPmA4iqDTo8OSLDCOXhK/h7ZVdcjChw5K4azEIQ82I0O22MxHp97uHa9iBc7A6XJSW7zDA6MN9p+9Bns5NxMaorhE6J9MeEtuVPRJJ+SMLpalNW4q+6MTS1IgsVTvHUDWfTct0EaZ9R8W8SBARMqhDcoLhKDZLZZpDHC0aVpXHWZmoh5jLlXbQtdz3W5LfNvLOtp30dSY3QN4C/EQ/b3u7Yfu8Y46mVPAhKR7YN4kEJYYebZ0OiTPRPlvsly+XLwgzsrOJt9fRLYa0qbra5oSgnBcCvMmQJJkXE2O51XWpAY06T3E84ChYUhKOTkCGrWszvFyL3y7mC47rsiqC/FwwQspLVuLDJuFtXPVh1aWcd4hRVJeE9dFzF4tycF2TsgdEOwwaU8gJwlL6bA7Tqwep9gGqLOk0VZUJBLi1ac5Ou0UiKUkypEMbDnP765Ixd25/jDsLS9zWGDDRV0TJZMPDmMCHnapsYddut/r08CQuiRkhu4F8Lvp1//LrvFn1JlciwnJ+jKiSyTRuXL+Gdr0KnjSxRUS7RhjH0anpGBoIx4FIEi29eSFxPTIiFIsjlMywOUMC6QjTfYizHIwnad/cvhikyGL9fbxOz64zvMxEchLK27gZrg49o8/D0+qGuMawZm+wPLVVl2OElQxwRxs0clfOyzRAgJxMr4oCsRQq5TJVM2aBSKXK/TYQxRalG+XJiwK0Q0coleMU1IBEhgxJcM0omZJCsVTB3VUGQIVNbDY7KPGUtsTobp17dbnVQ1//AFKZHDLJJOr1OhpkgFHtHoabw8uZkFCz22jb6Q985Te+YqbhxsqyXNJrJL9idOlpqsDcAZuUXQtlIS/EyTulFazPf4T/+DtfI2I1LG3USWkdq+U6yzUMZuI4MTmM+x/4LJIMb+mpKHEOpfSvz97Ecy+/ivmVMgrlGo2+jYP06jEeWVeLVZw7/zD38zRWihX87Olf2EuLCNU/lh3EHa5jfkMY8Z8JZ1cyXP2b9dCxY0e/7ZDXw0nQjN9aSJIm2J7Eq7uSHp9awKl8r1nFA8cP4s3L1zB3+zYlGbVXSWnaYrOyye0tQh72kMsmzWP3aA6V4ipu3pxDpcmzNE9j548cwvkTxzA6yKiOsb5i+ya3rZGpfRgZG8c7Fy+iTQ3LkBEbbR1iek77PBxFnjkya3G4mbCsJDoNkE28fbXVAA222y42q0sFlcVZq7gGK7EuRGIRRlHBMCo8To4Q6W9++XGcmhjBHm5T0XQ/Dk5N85yeR5nqW1pf4VptxFMJqngJdwrraHPcb33pi2gS5tmbK7h0q4CZmXlMj48j2qIWELc4j6vHjx1BpVJFm/v5gxNZY66IMsF5+EgIQtOR69I2jXoYcQJUWR1MRjRvAbota4cZLrlJ/bF6NXzfUBz//av3Y4h7sIKL43vHcHduHhfevYLAPZ/H3y318GShixHG5H3JLI+iNbQZk/OBKx/Nod7o4ksPf44Ix7A+cgRvr3UwdPQcGmyfv3kL+egWCtcv0TkyMszl7PjKfQ3h+RncNzlAxisocMTpckklz3epyctEjUlQHHBcYG624gjaId5aBGFwrqR25TRHcvfU5CCdWRujPFzo3VmS280QQ9Dzp09hcv02/un0EP7gzF70U8KjAxE7kbVKVXQqclDc/8kohiJIM+j5zUwT/+WL9+BwZxXHDk5hz8gI/UMS/TGaEneCdpdbJPf7CR5lJ8Ynbft0Hlwk2MNuw9IebhtjwS7S5Ao+sC7L7fZG+XVTcWcWtgvIUNiuIETMaUbTGBrfg8+cOGHMG2AENzAyiP37eRAZS+PxY2MYzaUJlwS4VcVptyFQRbeCPIn1M3jhmTsQQY3BTrdZxjAPLqPDaRyYGsK+/aPI5lJIpVL2RibDsHiEp9MHTp/EMA8685t14kB8haCXHE0u1yU6fPyFvnTDGh2xTvIGY3XN4JV1GZGEUJvrsH4RX9zcpHenyk9lZQgWbKR4WJH3jkXCVE29UOTBI8M1eN7WO3I5txCjswgjvGatzT26h8H+CLesJNuCSHHPziUTGORhJcl9myG7RYiBVhfx20uck+d6bm1V7vWaTwJwaBl2vN3TSdwyS6LCqbkA7fYkagNd23afYK2soa7NbJ2XUkLHUm5BoQZDzESK+zoXYDQXJ1ySsXaGyOcGUogEKFF1MhS13ZVqqpcMIZ7KWvTqvQ4dXjxkLxgTyRjLjAlIWI+I9ehLQnSgZfqFgX17UV5dt4jQcHEi38ZHbUaL1dw+LuSNJiddr8JbHSZRXa7X6jaAl43VZaCaQNJ39RoDk+r6OkaPnSEBNW+8otQobZ6hKitbFNlWmzE7p+ySCOoFtniuDrOzwoCkzpNXVIPIlIiFttwl6h206gyE2j10uWPIcTYYJIXI6Aj9RL1a49ruHGA4un+WLOfDyFa7cLabXFKFJY8A9fKf6oJl3fZENwWf6hScs2sHpdfJVPU6pR1Po7D4MVLpPL1sEBQkiW0bwSJmi3bcoEm0Kw39lmAHkR7b9WOh1ljZqGDu40WE6LmD9No99RMXkVWkE2yQ+HqDzo3bWGwsz/lbKDCiqzHCEz5Owk4gQs3hx6dPn2osE9Y1GLeUe7ddArYBTuK6twfz4UzC5uW5O4APCkUEqIaZDL0Ot5kmqZZGd0h0jwh2Gk2UVlZRon3qZKUXC2bnDFtTtNO8zuxsv3mngLWVJbQqZcKF6cG7tlXpJXO5G7Q4PUzPP9aXRSCewhPv33GnwW3c9IqbxuwhaFrJW1Ge+ihH0kiSXYcDcsR7bb7KC1hSV25grk0XC5ZL4hVK7ScXZ9HHOPzQkQNYWCuiTqLbzTZaPF0V11bQJvoHpvfb29V33n0PF9/7EFdvzOB//+w5fDA7j9d+9T5t1r2qanbKDGiqKNcbjOjaWK/QFHRgIeEhcnQkn8cbSwxidNwlHg4/EU1ukzhVTYjM1aB3eT7uoVOnTn5b+DtCrd86VFFVDBHzrE11XdYnGGvablOsfJPx+MlMEPsnR/DqL68gE3fe3H4j44ktPzTA+ei4eGDRKWuLUrh84zZj9Tb2DA3i9InjmOSWqFNbniFtiYTXqN536MQKpTp6OrklEpifncXVSg/zVR5LGTMoEU1DyQmaOHFX+ISf8mAM7p9985uEc0RoK/IHK/kBvSi3nE9jgjWpjRX9U6MSFxNXa5R8mG2PTkYxReSz9Mx9YcbVPGzE0jk6KHp/rhrmuTWS7aM2bHEXiKBeWEGV0t2o1EhwBYemxrCxtIgK9/mLs3fR4JhI3xD694zg/751xSQb9gSiZG92mAsv3weZlKXNahd9Hq5s4kWuOJWQPbjcbraLUivr8tt582Fc3N2m6aXy6Rhtiba5woDMXkbIc4d4rKTzW1zbtK2sV+miuQqUP1pH4+YaFt5ewPVfFXD98jIWZoq4vbiJ+cIymnSQDfkH4pslczr0G2Xavs748g+2qJcr8x5GjyVlnnCMaA+WuEsVHESAKmNEMYkvKulHOyPKsWh7Qj192G3CefscjXDeu6W22GwvEfSqqsIt6RoPHa8+8yu88PwF/Pzll/HR5ireuTqDXy5cw2xpEUuNdbw+exFP/P3LiFBanVYDNcbqMoU+Rm1Vem8hFxSuJiQnHLU5n+TM1k++cISxwRoXSNeZ02e+rXYfcT9ZWW2uZk/VlXyt+P8ldeuTjqkEV6GK9TMSywS6mJ1ZRJme++iXz+Chr38ZRx57CKOHJ7H//lOYOnUEnVgHH/9qBv/kwYdx+vxhtCjZ2Tur9BMRVLkbrNZk+1nMr5Y+IQQ/dwJyaTdNn85DZ86cdu/Vdw1XyQdwgZ5r3W4jLX7annBXWcnm5F1icHFgKG0/AIyOD+HMuWNIbdIzvzuHxSsz2GxWUK7WsXxnEXPPvo7Am3M4xqNraiLBE1gGm9zzP7yzhsF8BrPLJWNEjn5hYZNHVK3jFrOyy3krt3+0cdfiqbmA1G2a6xHkAVqj1N9rN1g9vEGW/LKXG5ynXrvHc6vF3U4chY0yKr0ACkQ2yANK5p4hhMcGMYEkRq9XsedWFfsWujiMHBIjQ7gdraFvOI/aRhFr5QYajPBKtSa9e4dn8Ao3CIa3DLrNuXINKfiObzI0mFzgpaprt5Iq1u4Uw/y6a1S3uLObALts4O5JNI1XdlVLfp+SylGu8PpyD/10TLcKm1guFOwXl/ThQaztiTDqWsVGcZnMWcBct4jFHLD/0CTilFW52cByheEsHeRSqYElObtaGSnF/bR3eWnhoNdk21oo/Fy2CzeruDbrk8RZlM3vbpT0jFsC8Ih3AAatmTzH4gZZqwfrM82/CYYW4+0XbzEG5766sFnmdtewD3sGJwbQGUtRwg3MhxmUjKRxdN+YvZcLE7bJI+pmc4tOsY1rc3ewuHgXU9QEdFt4+LPnHLG71jfMrE0la/XwMDCra49XKXTm7Fn7fdzxzkse+3wPbYlFOROnPt5lC2id7ZFuhV3JJ369w62oVkI/z9EKTCKMw5P6UTCbR38uj9GBPMbGxpFJJxGnINo8oNwprOIa7frWx3dwfWYGn//MKewdHyNTwtzrm4jlR7G+umy7kfATUUakHiZSZwbb+PmZ61Zd3V6LZbsI0z/VnQlzgKf+1uflTH6bXX7Z6q6Px2Y0I0lcpodeWa+wMYRIPINEegC54b3ITx1FJDnoHT/DWGW4e3VhHTcYoV25ehWP0uvrw4JsH5mGDuJU/3uOH8VCYd19+EdKHBXCaxfBYoByw8XlSjuw1unlavJzA/BKGuzBKUkDttu8tD3Ob/dyFZvdAAYHc/iHX17H0vIa6pWqvRevMIbfvHMbreomOnSC66UKLl67hbeuXMeHH13DycP7ceTAfvTlssgkE+jS9k+ePsMTYAoLd5cYne3GxZbf0Uw1qF2NKpsSSwud0qtsgNsjmTxwS37pExN6yS24c2/7hV19QqzMeCZHVe7LpvDGR7O4dPUjxtw33EmsXsTm0h3cuvMxfvza2/jpqxcwQ2nvHRvGqSPTGMpn0deXsXN9hFHg5KkH7KcqMWHh7rKdvLiQ4aa1JFEjTQ5QxFqfZXzw3+/9zu/6PmLbpt2RzpWV/HY97dNITco235FZn1f/dPLb1aNPVb44FeLJrI7TlOIcEZ7n2Xt5Zc0+AavWa5hbYrzOvT9OX9DP/frssWkcO3wAw/1ZHk54YquWMXDgFIIH7sfTP/8F/tuf/7n9Yrpv3z5MjAww7le06HB1mDFZ3buEI/+Fzp09Zz8TC1BJuTjm1/3kE6Wwz+/zifaTL12/XbmkH9EpjAzbf3Aag7EtrHF/1rcr07TZMe7bsn8dSrocY7+JD/Vj/8QI7r3nKA5OjGKA258+Kooy/o9utTHxa/8SK8sFPP/Cy7gxc4NxO+P3chnReBpZRohubYfrdlLdZwU7jXArWwvTp6XGqggwwgXkZbuJ1K2kXIcUfY4ZIZJ6KbjBiE3e+e13L+HkiRM4xC2ruLZKRCsYGxrGwPAIj5VhxGJRDNCz65380GA/pkaGMTE6QkaQ6Az3fZpIuNfE2EO/jcVyk1JO4s/+9E/RajF2J0Y6hRWLRfuhMabf03UU9khx6DmyfepsH/ArlhwN28SpIAgj0PcHTH7JiOV2EotGeUdQ4pHyFsPPty5dxdu8P7x+E9ev3SDjAqjWahjaM879PMS9nCe1pVU0yoSfm7f38rl02ogeHx7E1OgQRvozdIb9tO00IoEe8tNn0M5N2lH0lVdeoZY0qFGOyZJuvVHnLjCDJe4I6wx8tHPo93n3lwpOQL4TVMRhaugkauQ6iqzdE6/fxsyfQN+gREmo1HhlfRPvfTSDV966hCs3buE2PW271aLXLqFS3EQyTafEQ0aj0cD48fuQTyfs85C55RVcev8DFMWQwTwG9JEPDyD6lm1oaNA++dSxNsSAJT4whsjRL6DIfVvftP7oR0/SyZEAri+vo1wfC+l39JWVAoqlMlZLNVQbcvkknsIR0aLBnJ+kLSUQkVIXR6BRaEW1u5IjOkoCxMXC2gYu8zj54uvv2sf0JW5NehGgL407dDDFjXX7uiGeSnPkFrqdDlLcinqZYYzv3Y9YPG72WO91MTI0gJQ+DiIzE5y7j3YeI2MCrIc6VOs9U+g7/zWU1gpIZzK48MbruLu4ZK+o5I3sfboiEhKon5WqZPjq6iqWl5exykPOWrmFBn2e5pPPUTLChZhLlDKR173zgb3L7Ptw5u/fmMNzr72DD2/ctO/KxWktXOPhoU4HJY7Xa1ULe0W0mNoh0QowMpT87bk5HP+1b2AwSSLjUYyPjWBkzzBtk1pAO9a3LnpxqfHBdg3JqePIfParqPLcHvG+hfmr733f3q2b5EhskFtZmJFeWI6U7fIt+rVFv9Ovr66RAYvYZGxQrHdpUmSOpC+iCOfSblpN1T0NYKo3W3ie0l1cXDTuam+UUrTbLZSKG/aVoTRGr4PVoa+YJBGFfPqdPBZP2mfZktBmJ4xDZz+PTrNudRHZbskz64wtx8M5eFzNnf4iIsceRXmdYakn1fcuX8bMjVmDM5MLR82h6sWEXklHWBcBsnl5+xqFUaHaLxWWaAIr3EprjCc4F7ElWZ49e0mqrZqa1C7nceGd9+wXDjXqwzqpc6Nep6TLNoUhIe6LKRyrl/6y/2a9QlskUpyxVGKsPjCAZR42Jh76CrepPvTaDTuPV2jnMcKHg9zUyLDhL/0+6n2TdH6b1DbaMY+mSWrQd/7iO0ikGLbazkH713osi1CZIY1K1BBPvWuTXQep5i3iWcU6d5O7CwsoLBU8VTfp7txS84DK7JKKf7ywRFUpCtA+uG9xogZtWWWL0qQ3pFbw+oFeH+lo4fXVFccsAmhee13EK5fPYWnhNs79i/+ANE9h2UgPg+k4Ir0WMvvuxcg/+tdYK1YR7LkPfjjU3sBI2lcYwpo6s03f3BhxnFMHF9Ur1JpYVIdaaY6Qkg9ghUnBTYMMLkmzfEJ3E+5LXLm+ZLg597GV9YKvQ2ekXDubFhW0qaGoV3jIdn3M16QHDxAZ/RpiyFPtjh0/aS8K7UsnU9MQHv3Wn6Fv7z2G4Njj/xwDZ38dZcbu8voxOjx9JiqikvQBf/ODv6WfSNv2pPWlyv48UcYBsvkmQ1glw4d10SEm8QhgNOiT/jqJ3/bq1qrEXMRbkWqk37NW9JcCLNt3LuzTwso9deEti+nZh3f6oKejF/5EVh/e6gc9vTBIcQvbu28/JVLh0J79cpJiqPnv/+2/QnP0KA594w+RHppAp1GxYMY/29sXU0w6zFx47QJX4HrsU6ayYERwm05V2qadxFdx9YlQ4es8v8PbaQkLAuA/S8pV1KQC1OlHHDXeeBPywYkkNQ+YD+MmvbfKLebytvqgTz8Vq/Pe02d5/o6jRkZq3mq1gpOnzuCZZ1/GH/+nP0aUXJR8pMb6dVTSlqQFq1j8ySd/jGhCv5zydEZJ26GEI0zbtK0xXyksWESnsuHLPBx0n3jrEm2iIUBBcDmf8J3bIPhPnFyWtPWrJW+b0CNeh/+e5QFuEXIklKzGcAFJqU3k7AM9SkHOaf/+/aY1jrA4vvs//xJra2v2p1XaAZ544gf2F0cKjMQ05VpP2pFlUPP9v/6B2XmPc0fJFM0rjRJz5LQWFz5me5zBUp8TjhFObIivsGLFcGUztji/2bhd3ss7dSiRBkpsi4HAhobZlqFW5eqTsJ3q0A9Q+kJQVTGB9PHgQU6zz58vz6hMa+Xyefzt976LDy6/h9//3d+jw+lY3zPPPk/k73B+/cjYNpXVrS3wL7/7v7DBQEQMUSDU7XTNHKqMHdbWV5Gitx9mKJwi0Raecg7tMGKcZGWenwWy03DmWdxosuTH4T4jdNC4OX/buOQzRNzztUKfTvvc7BnTtAPoFObKms7aaCb69WOI25jssHD3Nm7duI5AJIbHHnsUp0+fpv026LxS+NYffIu5O10ppbht6U+w3nzrHfsRcYsxghirn47kZFOpBLJ9eWcWxNf+OtEIEx4SjLTRE6Y44Ei0FPR/T/KjNUeYk+YHH15zkxHQjnhst/F8yAw0Rk7D7d/kMPtFrMYYu/RBDhFSUDMxMU41D2N+Zgb/5o/+M8/bcbx54Q385ld+AydPnsTG+hqPmLN47bXXLOaWN5+fu2Vm9sILL/Fgoy1MUaUcnguUAiRQTlRaIzsX403diIhwtE9GmAt3aQKrRoDo9GxcPGAS0czYh4XFApoWajrVVo8YxrU9xkldSJ7UirlPtFtItmkgpvL6HLuPBw6p7j/+7W9gfGICn/3s/fiL//EdOs8FLDOoePCBB/DwQw/SCZ6zb2nEiLWVNbx24S33a6sQJqP91UWfkFEuO1d0qEXlr83GmYRHmGUTGssSlpBSO21c8F5sbmU+2FGm/WhSa2auRVnkTVhNKqJV50MbzhaBBaFJpV6C1LetiuV1ipNDsnXonPTSQJ9vyV5/8MQPeSYfxsy1q/h3f/hH2CTB6xsl/Ordizj/uYfxwx8+ac7Q/mySc9caPAcwFw88MRluUZpCtcoYgXhYq2hkkrhUF5z75xjjOTcRIMm7W1GborKQHBQnFRdNTdhuQ7WwRM+6z0WTAJNCU+sX0WzTPi5btWiQlzy+PHthaQnf+PrX8NWv/haefuY5XJ+dpSZM2qch2s5Ocvubv30bVz+8YmbUo0PTZ+FiXLNedUSQAJuPjN1glJignzBme1oqBtnbV94q7zDACCcBBBbBJlMjDtxvdcinmhBxtRic1+ds3la2dtFs9sRri5M6BvoxM2xvlVTMHslQObDLly7i0OFpfP/7f43VlVVrU/yvFfSppv7s8kdPPcXtSSc8h5/w1NYn5OuUbpveX9JTTKB39GKM0eHUQeg5ExQ+pC4sX6Q2o0EdeliB3VqAPVUeHIS8JO6cHifjQCWrK7eaRnqKz3ZXUlncdtuHPLKS26ODuHLlA/uq8fnnX7RXxHv3TuJzn/ucbU/6G1SFpzp3P/nUj+1crm9gRKDWk0PVMTRC5ygCRF2Lu0IiqT/isxaTsjpFigERRlrLFnUaDp9ybu4haZYYWurvPmysvCQvRWKCdYRpTjGK/OCCkrQxwtZknYBaStwfHhwyL615Jf2XX3oZ7168iD79pREPLN/4+tcxRBi9XZWUMiT6pZdfQZnHSf2Rre0gUldetnvokmYxfiiVNsxxasvUfq0kGWl71iUhyQmbqJnroGS5T8g2QWzUH7JajExvLML0vkzbiICcTTvCNMYmJWMscGBRbWZPAmMS3Nj4GBlNeyQTFH391z/5E/T39yPdl8H5z9yP4aFhDNPZNXjmj9MJJujMfvyTn5q0dRy1LVfqS/y0lZlRGj5dEktCvMWUuZILpmSmUm+iZoySpJWEp0a5f5rckAY2iyX2UIJsM1tmR6er4F/cFrg4rmaWfC57tq6/KVHZEOXCiqsHBgcNVo7nnXd/Sf9Rw4EDB9BHZzRKgp994Xn780oxPk5b1R/SPvPsM3aqI+sdUh4eIs7W4rp6F5BM8UwvEYsG62dB4jBcHbwnHs7hHhLCTsiqS4RwgfXNkk1skpOdczJdWoACMK3R9IaLGjzEpNZ8muprjOAkZf3Nt/4cQ7H1W29dwGfOnWVc2sYDD57H088/h7fffgsnTp5AmqGn3uf93c9/gSgjOzHNFmSSYCRzp6IKXSltBkTmRA0FJ0MRqaSxjiFEgskYJgYQT7edWasm2yFc76ekugoPjeG89GWiU2tKU4N4c7gFMGrQOCOcK8if6wCs2FgRluxbSCi+Xlq8i6FcDg899hj+5oknTKv0e/fBQ9NUsoCdvn701E/sfC2XJJwMNyKisuaRndbo1eP6WxZBUYImGuHB221fcsSSvORucrAoU2wwiavVV3NRIzr01wKyJB0+bP9lbnsoFw2Q24aIDXA5ITSYcBxtHBU66lXi01YjI2jfC/M3cfb8efzi6X+wsFXfoZ5gyKqQU/PfLSzj/fcu2YtDffmwY0reg7jIi0fETM5tu5AHoPV9QrWmOUVeNoPw5B0Ki5lknqRknLRpYH+rKScj3bAIjEBC2rYRm0jqzsmMOncu10iBimLl+obN4jvWJVGtoR8cCkuLGGOQ8uorr7rDCKdQmHr27FnnTDnf//nJTywQaZsTc0Q4E3IM0Jao8DSi10uc24IlLaqc/UJXquygNUrS581xtiBFy+k8ibuHFAPLPIYqvpXX11ZikuVAAzHq3MFEkwg1O4baDALQnk+T0My2iFNNRWpS95dfehGXL79vLxbSDEwO7t2HRq2JfD7Lg0bX1Pyn9ObRmGyX9s0pRJjW0MtLEVDXXw/TAeqkJu1U2Gvk8GHv1nhbRljhJJOVNGwrJsYdwtvbGFWMHj5kG0vLq/QdHERJOjLdGVy5qT0v89rs1AIizkrqk5ZIwpxYEhfntZAQVbz+2iuv2//nojidHTh85DCeef4ZTE5OcQut4f0PrmCZUZwch+bSeC7FqTm3jJT1ZrtB6UWNUi4lComBLke17N2dFSRp4r2rrCTtaSniE9420CihxHkiMoIkOTkNeUciaQuQa5pUiidCNaXa+c+SuKzvzjWjbSaCJebaj2U61z76EMfvOY7S2jpO33cOz774ElYKS5jYd4B86OIpRWr0/PqMm+DC13BzKAdQYbCS0S8z8uTExZFsQNYvzEwAtqWpT5qnbdTByzR0NRo1/D/nngSi+7ud1gAAAABJRU5ErkJggg==;" vertex="1" parent="1">
          <mxGeometry x="260" y="480" width="62" height="80" as="geometry" />
        </mxCell>
      </root>
    </mxGraphModel>
  </diagram>
</mxfile>
